<svg xmlns="http://www.w3.org/2000/svg" id="_001-bank" width="48" height="47.998" data-name="001-bank" viewBox="0 0 48 47.998"><g id="Grupo_2" data-name="Grupo 2"><g id="Grupo_1" data-name="Grupo 1"><path id="Trazado_1" fill="#fff" d="M46.55,42.447A11,11,0,0,0,44,28.527v-6.52h1a1,1,0,0,0,1-1v-3h1a1,1,0,0,0,.57-1.82l-23-16a1,1,0,0,0-1.14,0l-23,16A1,1,0,0,0,1,18.007H2v3a1,1,0,0,0,1,1H4v16H3a1,1,0,0,0-1,1v3.18a3,3,0,0,0-2,2.82v2a1,1,0,0,0,1,1H47a1,1,0,0,0,1-1v-2A3,3,0,0,0,46.55,42.447ZM44,20.007H36v-2h8Zm-2,2v5.21a10.9,10.9,0,0,0-4-1.16v-4.05h4ZM24,2.227l19.81,13.78H4.19ZM13,38.007H12v-16h1a1,1,0,0,0,1-1v-3h4v3a1,1,0,0,0,1,1h1v16H19a1,1,0,0,0-1,1v3H14v-3A1,1,0,0,0,13,38.007Zm7,2h6.43a10.91,10.91,0,0,0,.79,2H20v-2Zm2-2v-16h4v16Zm5-18H20v-2h8v2H27Zm1,2h1a1,1,0,0,0,1-1v-3h4v3a1,1,0,0,0,1,1h1v4.05a11,11,0,0,0-8,4.64Zm-24-4h8v2H4Zm6,4v16H6v-16Zm-6,18h8v2H4Zm-2,6v-1a1,1,0,0,1,1-1H28.52a11.091,11.091,0,0,0,2.17,2H2Zm44,0H43.3a11.082,11.082,0,0,0,2.1-1.91,1,1,0,0,1,.6.91Zm-9,0a9,9,0,1,1,9-9A9,9,0,0,1,37,46.007Z" data-name="Trazado 1" transform="translate(0 -0.008)"/><path id="Trazado_2" fill="#fff" d="M170.973,52.685l-11-8-1.23,1.62,8.51,6.19h-17.92v2h21a1,1,0,0,0,.64-1.81Z" data-name="Trazado 2" transform="translate(-135.333 -40.497)"/><path id="Trazado_3" fill="#fff" d="M358,321.992h-1v-2h-2v2h-1a2,2,0,0,0-2,2v2a2,2,0,0,0,2,2h4v2h-4v-1h-2v1a2,2,0,0,0,2,2h1v2h2v-2h1a2,2,0,0,0,2-2v-2a2,2,0,0,0-2-2h-4v-2h4v1h2v-1A2,2,0,0,0,358,321.992Z" data-name="Trazado 3" transform="translate(-319 -289.994)"/></g></g></svg>