<svg xmlns="http://www.w3.org/2000/svg" width="24" height="18.752" viewBox="0 0 24 18.752"><path id="Icon_awesome-exchange-alt" fill="#fff" d="M0,9.187v-.75A1.125,1.125,0,0,1,1.125,7.312H18V5.062a1.126,1.126,0,0,1,1.921-.8l3.75,3.75a1.125,1.125,0,0,1,0,1.591l-3.75,3.75a1.126,1.126,0,0,1-1.921-.8v-2.25H1.125A1.125,1.125,0,0,1,0,9.187Zm22.875,7.125H6v-2.25a1.126,1.126,0,0,0-1.921-.8l-3.75,3.75a1.125,1.125,0,0,0,0,1.591l3.75,3.75A1.126,1.126,0,0,0,6,21.562v-2.25H22.875A1.125,1.125,0,0,0,24,18.187v-.75A1.125,1.125,0,0,0,22.875,16.312Z" data-name="Icon awesome-exchange-alt" transform="translate(0 -3.936)"/></svg>